<?xml version="1.0" standalone="no"?>
<!DOCTYPE svg PUBLIC "-//W3C//DTD SVG 20010904//EN"
 "http://www.w3.org/TR/2001/REC-SVG-20010904/DTD/svg10.dtd">
<svg version="1.0" xmlns="http://www.w3.org/2000/svg"
 width="288.000000pt" height="288.000000pt" viewBox="0 0 288.000000 288.000000"
 preserveAspectRatio="xMidYMid meet">
<metadata>
Created by potrace 1.14, written by Peter Selinger 2001-2017
</metadata>
<g transform="translate(0.000000,288.000000) scale(0.100000,-0.100000)"
fill="#000000" stroke="none">
<path d="M0 1440 l0 -1441 1088 3 c896 2 1087 5 1084 16 -1 8 2 11 8 7 6 -3 8
-10 5 -14 -2 -5 67 -8 155 -8 110 1 157 4 153 11 -4 6 1 5 10 -3 14 -11 20
-11 34 0 11 10 14 10 9 2 -5 -9 0 -13 14 -13 14 0 19 4 14 13 -6 9 -4 9 8 -1
19 -15 179 -13 190 3 5 6 8 6 8 -2 0 -7 11 -13 25 -13 14 0 25 6 25 13 0 7 3
8 8 2 4 -5 14 -11 22 -12 12 -2 15 13 18 80 1 57 -1 77 -8 67 -6 -9 -10 -10
-10 -3 0 6 4 14 9 17 5 3 9 40 9 81 0 55 -3 73 -11 68 -7 -4 -5 2 3 12 14 17
13 18 -5 12 -19 -7 -19 -6 -2 7 19 15 20 45 2 58 -7 5 -6 8 1 8 15 0 15 272 0
282 -8 5 -7 8 2 8 6 0 12 11 12 25 0 14 -5 25 -11 25 -5 0 -7 -5 -3 -12 5 -7
3 -8 -6 -3 -10 6 -10 11 3 20 20 14 22 51 5 58 -10 4 -10 6 0 6 6 1 12 12 12
26 0 14 -6 25 -12 25 -9 0 -9 3 -3 8 15 10 15 102 1 102 -6 0 -4 5 4 10 13 9
13 11 0 20 -10 6 -11 10 -2 10 6 0 12 11 12 25 0 14 -5 25 -11 25 -5 0 -7 -5
-3 -12 5 -7 3 -8 -6 -3 -11 7 -10 10 1 19 10 7 15 30 16 64 0 45 -2 52 -16 48
-14 -5 -14 -4 1 7 23 18 22 156 -1 175 -14 11 -14 12 -1 7 14 -5 16 7 17 77 1
53 -3 86 -10 90 -9 6 -8 8 1 8 15 0 13 70 -3 70 -6 0 -5 3 2 8 14 9 13 142 -1
142 -8 0 -7 3 0 8 6 4 11 23 11 42 0 19 -5 38 -11 42 -8 6 -8 8 0 8 7 0 11 40
11 123 -1 98 -4 124 -16 135 -14 11 -14 12 0 7 13 -5 16 3 16 39 1 30 -3 43
-10 39 -6 -4 -7 -1 -1 8 13 21 13 183 0 191 -7 5 -7 8 0 8 15 0 17 79 2 98 -9
11 -9 14 -1 9 15 -9 13 44 -2 55 -7 5 -6 8 1 8 7 0 10 49 10 144 1 142 0 144
-21 141 -12 -1 -28 -6 -35 -10 -9 -5 -11 -4 -6 3 10 17 -56 16 -73 0 -11 -11
-12 -10 -6 0 5 10 0 13 -21 10 -18 -2 -28 -8 -26 -16 1 -8 -2 -11 -8 -7 -6 3
-8 10 -5 15 3 4 -598 9 -1335 9 l-1340 2 0 -1441z m2365 1420 c3 -5 1 -10 -4
-10 -6 0 -11 5 -11 10 0 6 2 10 4 10 3 0 8 -4 11 -10z m105 0 c0 -5 -5 -10
-11 -10 -5 0 -7 5 -4 10 3 6 8 10 11 10 2 0 4 -4 4 -10z m297 -8 c-17 -18 -51
-27 -41 -10 3 5 9 6 14 3 4 -3 13 2 20 10 7 8 15 15 18 15 3 0 -2 -8 -11 -18z
m-120 -19 c0 -9 -4 -10 -14 -2 -7 6 -13 12 -13 14 0 1 6 2 13 2 8 0 14 -6 14
-14z m193 12 c0 -2 -6 -8 -13 -14 -10 -8 -14 -7 -14 2 0 8 6 14 14 14 7 0 13
-1 13 -2z m-150 -9 c0 -2 -8 -10 -17 -17 -16 -13 -17 -12 -4 4 13 16 21 21 21
13z m-305 -15 c3 -5 2 -12 -3 -15 -5 -3 -9 1 -9 9 0 17 3 19 12 6z m85 5 c0
-3 -4 -8 -10 -11 -5 -3 -10 -1 -10 4 0 6 5 11 10 11 6 0 10 -2 10 -4z m276
-26 c0 -12 -4 -16 -9 -11 -5 5 -6 14 -3 20 10 15 12 14 12 -9z m-145 -7 c13
-16 12 -17 -3 -4 -17 13 -22 21 -14 21 2 0 10 -8 17 -17z m49 3 c0 -2 -8 -10
-17 -17 -16 -13 -17 -12 -4 4 13 16 21 21 21 13z m-240 -21 c0 -2 -9 -3 -19
-2 -11 0 -18 5 -15 9 4 6 34 0 34 -7z m410 9 c0 -8 -19 -13 -24 -6 -3 5 1 9 9
9 8 0 15 -2 15 -3z m-29 -21 c13 -16 12 -17 -3 -4 -17 13 -22 21 -14 21 2 0
10 -8 17 -17z m74 8 c3 -5 2 -12 -3 -15 -5 -3 -9 1 -9 9 0 17 3 19 12 6z
m-198 -16 c0 -8 -4 -12 -9 -9 -4 3 -8 9 -8 15 0 5 4 9 8 9 5 0 9 -7 9 -15z
m62 12 c-2 -1 -13 -9 -24 -17 -19 -14 -19 -14 -6 3 7 9 18 17 24 17 6 0 8 -1
6 -3z m34 -15 c15 -16 15 -19 2 -19 -8 0 -13 3 -10 5 3 3 0 11 -6 19 -17 20
-5 16 14 -5z m-338 -12 c3 -5 1 -10 -4 -10 -6 0 -11 5 -11 10 0 6 2 10 4 10 3
0 8 -4 11 -10z m305 -25 c0 -2 -9 -3 -19 -2 -11 0 -18 5 -15 9 4 6 34 0 34 -7z
m-344 -20 c-1 -8 -5 -17 -8 -21 -5 -4 -4 16 1 34 3 9 9 -1 7 -13z m429 5 c-4
-6 -1 -19 6 -28 12 -16 12 -16 -5 0 -16 14 -15 38 0 38 3 0 2 -5 -1 -10z
m-145 -4 c0 -2 -8 -10 -17 -17 -16 -13 -17 -12 -4 4 13 16 21 21 21 13z m34
-26 c-6 -6 -10 -3 -10 10 0 13 4 16 10 10 7 -7 7 -13 0 -20z m75 14 c-7 -9
-14 -23 -15 -31 -2 -8 -5 -18 -8 -21 -4 -3 -5 4 -3 15 3 20 24 53 34 53 3 0
-1 -7 -8 -16z m-138 -31 c13 -16 12 -17 -3 -4 -10 7 -18 15 -18 17 0 8 8 3 21
-13z m-31 3 c0 -2 -8 -10 -17 -17 -16 -13 -17 -12 -4 4 13 16 21 21 21 13z
m-245 -36 c3 -5 1 -10 -4 -10 -6 0 -11 5 -11 10 0 6 2 10 4 10 3 0 8 -4 11
-10z m65 0 c0 -5 -5 -10 -11 -10 -5 0 -7 5 -4 10 3 6 8 10 11 10 2 0 4 -4 4
-10z m306 -2 c3 -4 -1 -5 -10 -4 -8 1 -18 5 -22 8 -3 4 1 5 10 4 8 -1 18 -5
22 -8z m109 -6 c-3 -3 -11 0 -18 7 -9 10 -8 11 6 5 10 -3 15 -9 12 -12z m-151
-10 c3 -5 -1 -9 -9 -9 -8 0 -12 4 -9 9 3 4 7 8 9 8 2 0 6 -4 9 -8z m113 -20
c-1 -16 -7 -29 -14 -29 -8 0 -9 5 -4 11 5 6 7 19 6 29 -2 9 0 17 5 17 4 0 7
-13 7 -28z m-519 -7 c-3 -3 -9 2 -12 12 -6 14 -5 15 5 6 7 -7 10 -15 7 -18z
m137 5 c3 -5 1 -10 -4 -10 -6 0 -11 5 -11 10 0 6 2 10 4 10 3 0 8 -4 11 -10z
m425 6 c0 -2 -7 -7 -16 -10 -8 -3 -12 -2 -9 4 6 10 25 14 25 6z m-167 -21 c-3
-9 -8 -14 -10 -11 -3 3 -2 9 2 15 9 16 15 13 8 -4z m67 11 c0 -2 -8 -10 -17
-17 -16 -13 -17 -12 -4 4 13 16 21 21 21 13z m20 -20 c0 -2 -8 -10 -17 -17
-16 -13 -17 -12 -4 4 13 16 21 21 21 13z m-380 -10 c0 -3 -4 -8 -10 -11 -5 -3
-10 -1 -10 4 0 6 5 11 10 11 6 0 10 -2 10 -4z m397 -19 c0 -8 -6 -14 -14 -14
-9 0 -10 4 -2 14 6 7 12 13 14 13 1 0 2 -6 2 -13z m-266 -14 c13 -16 12 -17
-3 -4 -10 7 -18 15 -18 17 0 8 8 3 21 -13z m167 -4 c9 -12 9 -16 -1 -16 -7 0
-14 9 -14 20 -1 11 -1 18 0 16 2 -2 8 -11 15 -20z m-301 -21 c2 -17 0 -19 -7
-8 -5 8 -6 18 -4 22 8 12 10 10 11 -14z m392 7 c7 3 8 0 5 -9 -8 -20 -7 -20
-30 6 -14 17 -15 20 -2 9 9 -7 22 -10 27 -6z m74 3 c-6 -7 -9 -25 -8 -40 1
-15 -2 -25 -6 -23 -4 3 -6 13 -5 23 2 9 -4 23 -13 30 -15 11 -15 12 0 6 10 -3
20 -1 24 5 3 6 9 11 12 11 3 0 1 -6 -4 -12z m-643 -18 c0 -5 -2 -10 -4 -10 -3
0 -8 5 -11 10 -3 6 -1 10 4 10 6 0 11 -4 11 -10z m65 0 c3 -6 -1 -7 -9 -4 -18
7 -21 14 -7 14 6 0 13 -4 16 -10z m369 -18 c3 -5 -1 -9 -9 -9 -8 0 -12 4 -9 9
3 4 7 8 9 8 2 0 6 -4 9 -8z m43 -15 c1 -11 1 -18 0 -16 -2 2 -8 11 -15 20 -9
12 -9 16 1 16 7 0 14 -9 14 -20z m-320 -2 c0 -8 -4 -12 -9 -9 -5 3 -6 10 -3
15 9 13 12 11 12 -6z m370 -3 c-10 -10 -15 -21 -12 -24 3 -2 -2 -5 -10 -5 -12
0 -10 6 7 24 25 27 39 32 15 5z m54 1 c13 -16 12 -17 -3 -4 -17 13 -22 21 -14
21 2 0 10 -8 17 -17z m-341 -3 c0 -5 -5 -10 -11 -10 -5 0 -7 5 -4 10 3 6 8 10
11 10 2 0 4 -4 4 -10z m71 -7 c13 -16 12 -17 -3 -4 -10 7 -18 15 -18 17 0 8 8
3 21 -13z m-247 -12 c77 -1 141 -3 144 -5 8 -8 7 -1316 -1 -1316 -5 0 -6 -4
-3 -8 3 -5 -7 -9 -22 -9 -81 1 -133 -4 -127 -12 3 -5 1 -13 -5 -16 -6 -4 -9
-1 -8 7 2 9 -10 13 -37 14 -62 3 -135 15 -177 30 -21 7 -38 10 -38 6 0 -4 -4
-2 -8 5 -4 6 -14 13 -22 15 -8 2 -21 11 -28 21 -7 9 -19 14 -25 11 -7 -4 -9
-4 -5 1 4 4 -3 22 -16 39 -45 61 -57 140 -32 216 9 28 14 56 10 62 -4 7 -3 8
4 4 7 -4 28 6 49 21 20 15 45 27 55 25 11 -2 27 2 36 10 8 7 13 8 10 3 -4 -7
24 -10 81 -10 88 0 88 0 87 25 -1 14 -5 31 -10 39 -6 9 -5 12 1 8 6 -4 9 30 9
91 l0 97 -105 -1 c-92 -1 -111 2 -146 22 -56 31 -86 89 -90 175 -2 38 -7 74
-11 80 -4 8 -3 9 4 5 8 -5 12 0 12 13 0 60 55 107 114 96 41 -8 63 -49 61
-117 l-1 -48 41 -1 c72 -1 220 0 225 2 3 1 11 2 19 3 14 1 17 10 25 69 7 57
-44 224 -66 211 -4 -3 -8 0 -8 6 0 6 -9 20 -20 32 -11 12 -20 19 -20 15 0 -3
-11 5 -25 19 -15 15 -32 23 -41 20 -9 -3 -12 -1 -9 4 3 6 0 10 -8 10 -8 0 -21
8 -28 18 -12 15 -12 16 1 5 11 -8 63 -12 154 -12z m492 10 c-4 -5 0 -11 6 -14
7 -3 3 -4 -9 -4 -17 1 -19 4 -11 14 12 15 22 18 14 4z m-1052 -36 c-65 -34
-139 -116 -166 -184 -31 -81 -35 -234 -7 -316 23 -65 75 -139 91 -129 7 4 8 2
4 -4 -6 -11 59 -61 99 -76 17 -7 15 -10 -20 -26 -70 -33 -133 -104 -167 -190
-27 -68 -32 -221 -9 -297 1 -2 1 -5 1 -8 -1 -23 63 -119 109 -165 126 -125
303 -180 566 -175 159 3 177 4 171 13 -2 4 4 8 15 8 10 0 19 -7 20 -16 0 -8 1
-95 2 -192 l2 -178 -100 -1 c-55 0 -139 0 -187 1 -73 1 -88 -2 -98 -17 -10
-16 -11 -16 -6 0 5 16 -37 17 -784 17 l-790 0 0 980 0 980 651 0 652 0 -49
-25z m1109 12 c4 3 7 1 7 -5 0 -17 -16 -15 -31 6 -12 15 -12 16 2 5 9 -7 19
-10 22 -6z m-187 -9 c3 -4 -1 -5 -10 -4 -8 1 -18 5 -22 8 -3 4 1 5 10 4 8 -1
18 -5 22 -8z m91 -15 c-4 -3 1 -16 10 -27 18 -21 18 -21 -4 -2 -25 21 -30 36
-11 36 6 0 8 -3 5 -7z m40 -10 c0 -9 -4 -10 -14 -2 -7 6 -13 12 -13 14 0 1 6
2 13 2 8 0 14 -6 14 -14z m-237 3 c0 -2 -8 -10 -17 -17 -16 -13 -17 -12 -4 4
13 16 21 21 21 13z m116 -32 c1 -9 0 -13 -4 -10 -3 4 -7 14 -8 22 -1 9 0 13 4
10 3 -4 7 -14 8 -22z m55 9 c13 -16 12 -17 -3 -4 -17 13 -22 21 -14 21 2 0 10
-8 17 -17z m103 -1 c2 -4 -4 -8 -14 -8 -10 0 -16 4 -14 8 3 4 9 8 14 8 5 0 11
-4 14 -8z m20 -24 c-5 -8 -2 -9 12 -4 10 4 15 4 11 0 -4 -4 -1 -14 6 -23 10
-14 10 -14 -5 -3 -9 8 -21 11 -27 8 -5 -3 -8 2 -6 11 5 24 4 23 11 23 3 0 2
-5 -2 -12z m-364 -2 c0 -2 -8 -10 -17 -17 -16 -13 -17 -12 -4 4 13 16 21 21
21 13z m182 -23 c-1 -4 7 -17 16 -28 17 -20 17 -20 -4 -2 -11 9 -21 24 -21 32
0 8 2 13 5 11 2 -2 4 -8 4 -13z m-561 -30 c13 -16 12 -17 -3 -4 -10 7 -18 15
-18 17 0 8 8 3 21 -13z m409 7 c0 -5 -5 -10 -11 -10 -5 0 -7 5 -4 10 3 6 8 10
11 10 2 0 4 -4 4 -10z m-555 -20 c-3 -5 -12 -10 -18 -10 -7 0 -6 4 3 10 19 12
23 12 15 0z m270 -9 c3 -5 2 -12 -3 -15 -5 -3 -9 1 -9 9 0 17 3 19 12 6z m540
0 c3 -5 2 -12 -3 -15 -5 -3 -9 1 -9 9 0 17 3 19 12 6z m-110 -11 c-3 -5 -12
-10 -18 -10 -7 0 -6 4 3 10 19 12 23 12 15 0z m175 2 c0 -5 -7 -9 -15 -9 -8 0
-12 4 -9 9 3 4 9 8 15 8 5 0 9 -4 9 -8z m-40 -6 c0 -2 -8 -10 -17 -17 -16 -13
-17 -12 -4 4 13 16 21 21 21 13z m16 -35 c0 -11 -5 -17 -13 -14 -10 4 -11 9
-2 19 15 18 15 18 15 -5z m-296 -1 c0 -5 -2 -10 -4 -10 -3 0 -8 5 -11 10 -3 6
-1 10 4 10 6 0 11 -4 11 -10z m201 -3 c-6 -8 -9 -16 -6 -19 3 -2 -2 -5 -10 -5
-13 0 -13 3 2 19 19 21 31 25 14 5z m163 5 c3 -5 -1 -9 -9 -9 -8 0 -12 4 -9 9
3 4 7 8 9 8 2 0 6 -4 9 -8z m-240 -24 c-3 -4 -9 -8 -15 -8 -5 0 -9 4 -9 8 0 5
7 9 15 9 8 0 12 -4 9 -9z m116 8 c0 -2 -7 -7 -16 -10 -8 -3 -12 -2 -9 4 6 10
25 14 25 6z m31 -13 c13 -16 12 -17 -3 -4 -17 13 -22 21 -14 21 2 0 10 -8 17
-17z m77 -1 c14 10 15 10 5 -2 -18 -20 -43 -22 -35 -2 4 11 7 12 10 4 3 -10 7
-10 20 0z m-593 -12 c3 -5 1 -10 -4 -10 -6 0 -11 5 -11 10 0 6 2 10 4 10 3 0
8 -4 11 -10z m55 6 c0 -2 -8 -10 -17 -17 -16 -13 -17 -12 -4 4 13 16 21 21 21
13z m441 -13 c13 -16 12 -17 -3 -4 -17 13 -22 21 -14 21 2 0 10 -8 17 -17z
m-95 -18 c1 -8 -1 -17 -5 -19 -4 -3 -7 6 -7 19 0 25 8 25 12 0z m43 -19 c-3
-3 -11 5 -18 17 -13 21 -12 21 5 5 10 -10 16 -20 13 -22z m112 17 c13 -16 12
-17 -3 -4 -17 13 -22 21 -14 21 2 0 10 -8 17 -17z m26 -15 c-3 -8 -6 -5 -6 6
-1 11 2 17 5 13 3 -3 4 -12 1 -19z m-743 4 c3 -5 -1 -9 -9 -9 -8 0 -12 4 -9 9
3 4 7 8 9 8 2 0 6 -4 9 -8z m222 -7 c-1 -8 -5 -17 -8 -21 -5 -4 -4 16 1 34 3
9 9 -1 7 -13z m463 12 c-2 -1 -13 -9 -24 -17 -19 -14 -19 -14 -6 3 7 9 18 17
24 17 6 0 8 -1 6 -3z m-524 -26 c3 -5 2 -12 -3 -15 -5 -3 -9 1 -9 9 0 17 3 19
12 6z m422 -16 c0 -8 -3 -13 -5 -10 -3 3 -10 0 -17 -5 -8 -7 -12 -5 -12 5 0 8
4 12 8 9 4 -2 10 0 14 6 9 14 12 13 12 -5z m127 -7 c-3 -4 -9 -8 -15 -8 -5 0
-9 4 -9 8 0 5 7 9 15 9 8 0 12 -4 9 -9z m56 2 c0 -5 -4 -10 -10 -10 -5 0 -10
5 -10 10 0 6 5 10 10 10 6 0 10 -4 10 -10z m-236 -18 c3 -5 -1 -9 -9 -9 -8 0
-15 4 -15 9 0 4 4 8 9 8 6 0 12 -4 15 -8z m52 -22 c0 -12 -4 -16 -9 -11 -5 5
-6 14 -3 20 10 15 12 14 12 -9z m98 -9 c-2 -3 -12 3 -22 13 -16 17 -16 18 5 5
12 -7 20 -15 17 -18z m24 -36 c-3 -3 -9 2 -12 12 -6 14 -5 15 5 6 7 -7 10 -15
7 -18z m34 -7 c-8 -8 -9 -4 -5 13 4 13 8 18 11 10 2 -7 -1 -18 -6 -23z m-98
11 c3 -3 -5 -5 -19 -5 -13 0 -22 3 -19 7 4 8 30 6 38 -2z m128 -7 c3 -11 0
-19 -7 -19 -7 0 -10 8 -7 19 2 10 6 18 7 18 1 0 5 -8 7 -18z m-82 4 c0 -2 -8
-10 -17 -17 -16 -13 -17 -12 -4 4 13 16 21 21 21 13z m-60 -20 c0 -2 -8 -10
-17 -17 -16 -13 -17 -12 -4 4 13 16 21 21 21 13z m77 -15 c-1 -15 -4 -17 -14
-9 -15 12 -17 22 -3 13 6 -3 10 -1 10 4 0 6 2 11 4 11 3 0 4 -9 3 -19z m-126
-8 c13 -16 12 -17 -3 -4 -17 13 -22 21 -14 21 2 0 10 -8 17 -17z m69 3 c0 -2
-8 -10 -17 -17 -16 -13 -17 -12 -4 4 13 16 21 21 21 13z m-116 -18 c-3 -4 -9
-8 -15 -8 -5 0 -9 4 -9 8 0 5 7 9 15 9 8 0 12 -4 9 -9z m246 8 c0 -2 -9 -6
-20 -9 -11 -3 -18 -1 -14 4 5 9 34 13 34 5z m-289 -23 c13 -16 12 -17 -3 -4
-10 7 -18 15 -18 17 0 8 8 3 21 -13z m175 2 c-1 -8 -5 -17 -8 -21 -5 -4 -4 16
1 34 3 9 9 -1 7 -13z m57 0 c-3 -9 -8 -14 -10 -11 -3 3 -2 9 2 15 9 16 15 13
8 -4z m-118 -13 c-3 -3 -11 0 -18 7 -9 10 -8 11 6 5 10 -3 15 -9 12 -12z m162
3 c0 -8 -4 -12 -9 -9 -5 3 -6 10 -3 15 9 13 12 11 12 -6z m-193 -13 c2 -4 -4
-8 -14 -8 -10 0 -16 4 -14 8 3 4 9 8 14 8 5 0 11 -4 14 -8z m-49 -41 c3 -5 2
-12 -3 -15 -5 -3 -9 1 -9 9 0 17 3 19 12 6z m158 -8 c-3 -7 -6 -13 -8 -13 -2
0 -5 6 -8 13 -3 8 1 14 8 14 7 0 11 -6 8 -14z m23 -8 c-1 -8 -5 -17 -8 -21 -5
-4 -4 16 1 34 3 9 9 -1 7 -13z m-220 -20 c0 -28 -8 -24 -13 5 -2 11 1 20 5 20
4 0 8 -11 8 -25z m175 8 c13 -17 13 -17 -6 -3 -11 8 -22 16 -24 17 -2 2 0 3 6
3 6 0 17 -8 24 -17z m-67 -32 c14 -15 15 -21 4 -27 -7 -4 -10 -3 -5 1 4 5 0
17 -10 27 -9 10 -14 18 -11 18 3 0 13 -9 22 -19z m-48 -3 c3 -4 -2 -5 -13 -4
-10 2 -25 -2 -33 -8 -13 -9 -13 -9 -2 6 12 16 35 18 48 6z m104 8 c0 -2 -7 -7
-16 -10 -8 -3 -12 -2 -9 4 6 10 25 14 25 6z m-243 -51 c0 -8 -4 -12 -9 -9 -5
3 -6 10 -3 15 9 13 12 11 12 -6z m118 7 c-3 -3 0 -10 5 -17 7 -8 5 -12 -5 -12
-8 0 -13 3 -10 5 3 3 0 10 -5 17 -7 8 -5 12 5 12 8 0 13 -3 10 -5z m181 1 c-8
-8 -66 -12 -62 -4 2 3 18 7 36 7 17 1 29 -1 26 -3z m44 3 c0 -2 -7 -7 -16 -10
-8 -3 -12 -2 -9 4 6 10 25 14 25 6z m-263 -21 c0 -8 -4 -12 -9 -9 -5 3 -6 10
-3 15 9 13 12 11 12 -6z m148 -5 c3 -6 -1 -7 -9 -4 -18 7 -21 14 -7 14 6 0 13
-4 16 -10z m128 -16 c-7 -19 -10 -18 -16 5 -3 13 -1 18 9 14 7 -2 10 -11 7
-19z m-173 12 c0 -2 -8 -10 -17 -17 -16 -13 -17 -12 -4 4 13 16 21 21 21 13z
m34 -22 c3 -8 2 -12 -4 -9 -6 3 -10 10 -10 16 0 14 7 11 14 -7z m73 -6 c-3 -8
-6 -5 -6 6 -1 11 2 17 5 13 3 -3 4 -12 1 -19z m-132 -16 c-3 -3 -11 0 -18 7
-9 10 -8 11 6 5 10 -3 15 -9 12 -12z m-199 -18 c1 -9 0 -13 -4 -10 -3 4 -7 14
-8 22 -1 9 0 13 4 10 3 -4 7 -14 8 -22z m41 13 c0 -8 -6 -14 -14 -14 -9 0 -10
4 -2 14 6 7 12 13 14 13 1 0 2 -6 2 -13z m-597 -1 c0 -2 -7 -7 -16 -10 -8 -3
-12 -2 -9 4 6 10 25 14 25 6z m824 -7 c3 -3 -5 -5 -19 -5 -13 0 -22 3 -19 7 4
8 30 6 38 -2z m80 -1 c-4 -5 -9 -7 -12 -4 -3 3 -12 0 -21 -7 -14 -10 -14 -10
-4 4 13 16 46 23 37 7z m-119 -38 c10 -11 16 -20 13 -20 -3 0 -13 9 -23 20
-10 11 -16 20 -13 20 3 0 13 -9 23 -20z m113 8 c-5 -13 -56 -19 -63 -8 -3 4 9
6 25 5 17 -1 30 1 30 6 0 5 3 9 6 9 3 0 4 -5 2 -12z m-154 -7 c-7 -8 -54 -9
-49 -1 2 3 15 6 29 6 14 0 23 -2 20 -5z m-9 -49 c-3 -3 -11 0 -18 7 -9 10 -8
11 6 5 10 -3 15 -9 12 -12z m62 -2 c-1 -12 -10 -29 -22 -38 -19 -17 -20 -16
-4 3 9 11 15 28 14 38 -2 9 1 17 5 17 5 0 8 -9 7 -20z m129 2 c1 -7 0 -8 -3
-2 -2 5 -9 8 -14 4 -5 -3 -9 0 -9 6 0 15 23 7 26 -8z m-286 -6 c0 -2 -7 -7
-16 -10 -8 -3 -12 -2 -9 4 6 10 25 14 25 6z m257 -28 c1 -13 -1 -18 -5 -12 -4
6 -19 10 -34 9 -15 -1 -25 2 -22 6 2 4 13 6 24 4 11 -2 22 0 25 6 9 13 11 11
12 -13z m-177 2 c0 -5 -5 -10 -11 -10 -5 0 -7 5 -4 10 3 6 8 10 11 10 2 0 4
-4 4 -10z m-159 -37 c13 -16 12 -17 -3 -4 -10 7 -18 15 -18 17 0 8 8 3 21 -13z
m179 3 c0 -2 -7 -7 -16 -10 -8 -3 -12 -2 -9 4 6 10 25 14 25 6z m137 -16 c-1
-11 -5 -20 -9 -20 -10 0 -10 4 -2 24 8 22 13 20 11 -4z m93 10 c-8 -5 -19 -10
-25 -10 -5 0 -3 5 5 10 8 5 20 10 25 10 6 0 3 -5 -5 -10z m-169 -24 c-13 -17
-7 -81 9 -102 13 -18 13 -18 -5 -1 -24 21 -30 114 -8 114 8 0 9 -5 4 -11z
m136 -11 c0 -8 -5 -11 -10 -8 -6 4 -8 0 -5 -8 4 -10 -1 -15 -16 -16 -11 0 -15
1 -8 4 10 4 10 8 1 19 -9 12 -9 13 4 9 8 -4 18 -2 22 4 9 15 12 14 12 -4z
m-179 -20 c16 -19 16 -19 -3 -3 -11 8 -28 14 -37 13 -10 -2 -20 0 -23 4 -10
17 46 4 63 -14z m119 0 c0 -8 -4 -12 -9 -9 -5 3 -6 10 -3 15 9 13 12 11 12 -6z
m-46 -12 c13 -16 12 -17 -3 -4 -10 7 -18 15 -18 17 0 8 8 3 21 -13z m129 -7
c0 -2 -7 -7 -16 -10 -8 -3 -12 -2 -9 4 6 10 25 14 25 6z m-320 -26 c0 -5 -2
-10 -4 -10 -3 0 -8 5 -11 10 -3 6 -1 10 4 10 6 0 11 -4 11 -10z m203 -3 c-2
-4 1 -14 7 -22 20 -24 6 -17 -18 8 -20 21 -20 23 -2 23 10 0 16 -4 13 -9z m33
-13 c1 -9 0 -13 -4 -10 -3 4 -7 14 -8 22 -1 9 0 13 4 10 3 -4 7 -14 8 -22z
m87 5 c-4 -15 -8 -17 -14 -8 -6 11 4 28 18 29 0 0 -1 -9 -4 -21z m-219 -10 c3
-2 -10 -5 -29 -5 -18 0 -32 3 -30 7 5 7 52 6 59 -2z m190 -33 c-6 -15 -28 -16
-41 -1 -4 4 -3 6 2 2 6 -3 17 -2 25 4 20 12 20 11 14 -5z m-110 -7 c3 -3 -10
-5 -29 -4 -18 0 -36 3 -39 6 -3 3 10 5 29 4 18 0 36 -3 39 -6z m27 -12 c-10
-9 -11 -8 -5 6 3 10 9 15 12 12 3 -3 0 -11 -7 -18z m-211 -5 c0 -5 -7 -9 -15
-9 -8 0 -12 4 -9 9 3 4 9 8 15 8 5 0 9 -4 9 -8z m157 -47 c0 -8 -4 -12 -9 -9
-5 4 -7 9 -4 12 3 3 -2 15 -11 26 -18 21 -18 21 3 3 11 -9 21 -24 21 -32z
m-77 20 c0 -2 -9 -3 -19 -2 -11 0 -18 5 -15 9 4 6 34 0 34 -7z m35 -5 c10 -11
16 -20 13 -20 -3 0 -13 9 -23 20 -10 11 -16 20 -13 20 3 0 13 -9 23 -20z m143
0 c2 -10 1 -11 -5 -4 -4 6 -20 10 -35 9 -15 -1 -25 1 -23 5 8 13 59 4 63 -10z
m-41 -25 c0 -8 -4 -12 -9 -9 -5 3 -6 10 -3 15 9 13 12 11 12 -6z m-203 -3 c3
-5 -1 -9 -9 -9 -8 0 -12 4 -9 9 3 4 7 8 9 8 2 0 6 -4 9 -8z m86 4 c0 -2 -7 -7
-16 -10 -8 -3 -12 -2 -9 4 6 10 25 14 25 6z m223 -16 c3 -11 1 -18 -4 -14 -5
3 -9 12 -9 20 0 20 7 17 13 -6z m-203 6 c0 -2 -8 -10 -17 -17 -16 -13 -17 -12
-4 4 13 16 21 21 21 13z m81 -13 c13 -16 12 -17 -3 -5 -9 8 -23 10 -29 6 -8
-4 -9 -3 -5 4 10 17 21 15 37 -5z m76 0 c-4 -3 -1 -13 6 -22 11 -14 10 -14 -5
-2 -21 15 -23 31 -6 31 6 0 8 -3 5 -7z m-216 -20 c13 -16 12 -17 -3 -4 -10 7
-18 15 -18 17 0 8 8 3 21 -13z m69 2 c-7 -8 -17 -15 -23 -15 -6 0 -2 7 9 15
25 19 30 19 14 0z m-93 -20 c0 -8 -4 -12 -9 -9 -5 3 -6 10 -3 15 9 13 12 11
12 -6z m163 1 c0 -2 -7 -7 -16 -10 -8 -3 -12 -2 -9 4 6 10 25 14 25 6z m33 -9
c-4 -7 1 -8 13 -3 15 6 17 5 6 -5 -10 -11 -15 -10 -28 2 -13 14 -13 16 0 16 8
0 12 -5 9 -10z m-319 -27 c-6 -6 -10 -3 -10 10 0 13 4 16 10 10 7 -7 7 -13 0
-20z m388 16 c7 4 8 2 4 -5 -9 -13 -26 -5 -25 12 0 9 2 8 6 -1 2 -6 10 -9 15
-6z m-66 -40 c-2 -14 0 -27 5 -30 5 -2 4 -3 -3 -2 -14 3 -20 56 -6 56 4 0 6
-11 4 -24z m-69 -4 c-10 -10 -15 -21 -12 -24 3 -3 -3 -11 -12 -19 -16 -13 -17
-12 -4 4 7 9 10 17 6 17 -5 0 0 9 10 20 10 11 20 20 23 20 3 0 -2 -8 -11 -18z
m-87 -2 c0 -5 -5 -10 -11 -10 -5 0 -7 5 -4 10 3 6 8 10 11 10 2 0 4 -4 4 -10z
m20 -24 c0 -2 -8 -10 -17 -17 -16 -13 -17 -12 -4 4 13 16 21 21 21 13z m95
-15 c-9 -8 -36 -10 -30 -2 2 4 11 8 20 8 8 0 13 -3 10 -6z m-75 -5 c0 -2 -8
-10 -17 -17 -16 -13 -17 -12 -4 4 13 16 21 21 21 13z m-120 -14 c0 -5 -7 -9
-15 -9 -8 0 -12 4 -9 9 3 4 9 8 15 8 5 0 9 -4 9 -8z m205 -2 c-4 -6 -1 -19 7
-28 12 -16 11 -16 -6 -2 -18 13 -19 13 -14 -1 4 -9 1 -16 -8 -16 -7 0 -11 4
-8 9 3 5 0 17 -8 26 -11 15 -11 16 3 4 14 -10 18 -10 23 3 3 8 8 15 11 15 4 0
3 -5 0 -10z m-126 -27 c2 -1 -5 -1 -16 0 -11 0 -20 7 -20 14 0 10 4 10 16 1 9
-7 18 -13 20 -15z m51 12 c-7 -8 -17 -15 -23 -15 -6 0 -2 7 9 15 25 19 30 19
14 0z m27 -18 c0 -8 -6 -14 -14 -14 -9 0 -10 4 -2 14 6 7 12 13 14 13 1 0 2
-6 2 -13z m-377 -7 c0 -5 -2 -10 -4 -10 -3 0 -8 5 -11 10 -3 6 -1 10 4 10 6 0
11 -4 11 -10z m501 -17 c2 1 3 0 1 -2 -7 -11 -31 -8 -36 5 -4 11 -1 12 13 5
10 -6 20 -9 22 -8z m53 -12 c-2 -3 -12 3 -22 13 -16 17 -16 18 5 5 12 -7 20
-15 17 -18z m-237 4 c0 -8 -4 -12 -9 -9 -4 3 -8 9 -8 15 0 5 4 9 8 9 5 0 9 -7
9 -15z m60 -22 c0 -9 -4 -10 -14 -2 -7 6 -13 12 -13 14 0 1 6 2 13 2 8 0 14
-6 14 -14z m97 -6 c-3 -8 -11 -14 -19 -14 -21 0 -19 15 3 20 9 3 18 5 19 6 1
0 0 -5 -3 -12z m-554 -1 c0 -3 -4 -8 -10 -11 -5 -3 -10 -1 -10 4 0 6 5 11 10
11 6 0 10 -2 10 -4z m380 -1 c0 -7 -30 -13 -34 -7 -3 4 4 9 15 9 10 1 19 0 19
-2z m51 -12 c13 -16 12 -17 -3 -4 -10 7 -18 15 -18 17 0 8 8 3 21 -13z m189 2
c0 -1 -9 -5 -19 -8 -13 -3 -18 -1 -14 9 4 10 33 10 33 -1z m-130 1 c0 -2 -7
-7 -16 -10 -8 -3 -12 -2 -9 4 6 10 25 14 25 6z m-455 -15 c3 -5 2 -12 -3 -15
-5 -3 -9 1 -9 9 0 17 3 19 12 6z m230 -1 c-3 -5 -12 -10 -18 -10 -7 0 -6 4 3
10 19 12 23 12 15 0z m32 3 c-4 -3 1 -16 10 -27 14 -15 14 -18 2 -8 -9 6 -18
9 -22 6 -3 -3 -4 2 -2 13 5 24 4 23 12 23 3 0 3 -3 0 -7z m198 -13 c-4 -6 -1
-19 7 -28 12 -15 11 -16 -4 -4 -9 8 -21 11 -26 8 -5 -3 -9 1 -9 9 0 8 4 12 8
9 4 -2 10 0 14 6 3 5 8 10 11 10 3 0 2 -5 -1 -10z m-104 -17 c13 -16 12 -17
-3 -4 -10 7 -18 15 -18 17 0 8 8 3 21 -13z m184 0 c-1 -10 2 -25 8 -33 9 -12
9 -13 -3 -3 -16 15 -24 53 -11 53 5 0 8 -8 6 -17z m40 -2 c3 -5 0 -13 -6 -17
-7 -4 -9 -3 -5 4 3 5 0 13 -6 15 -9 4 -10 6 -1 6 6 1 14 -3 18 -8z m-595 -16
c0 -2 -9 -3 -19 -2 -11 0 -18 5 -15 9 4 6 34 0 34 -7z m-55 -15 c-3 -5 -12
-10 -18 -10 -7 0 -6 4 3 10 19 12 23 12 15 0z m339 1 c-8 -8 -34 -10 -38 -2
-3 4 6 7 19 7 14 0 22 -2 19 -5z m75 6 c-2 -2 -11 -8 -20 -15 -12 -9 -16 -9
-16 1 0 7 9 14 20 14 11 1 18 1 16 0z m116 -6 c3 -5 2 -12 -3 -15 -5 -3 -9 1
-9 9 0 17 3 19 12 6z m64 -14 c0 -9 -2 -8 -6 1 -2 6 -10 9 -15 6 -7 -4 -8 -2
-4 5 9 13 26 5 25 -12z m76 13 c3 -5 1 -10 -4 -10 -6 0 -11 5 -11 10 0 6 2 10
4 10 3 0 8 -4 11 -10z m-599 -36 c1 -9 0 -13 -4 -10 -3 4 -7 14 -8 22 -1 9 0
13 4 10 3 -4 7 -14 8 -22z m84 16 c0 -5 -2 -10 -4 -10 -3 0 -8 5 -11 10 -3 6
-1 10 4 10 6 0 11 -4 11 -10z m333 -15 c15 1 27 -1 27 -5 0 -4 -18 -7 -39 -6
-22 0 -38 3 -35 5 2 2 -2 11 -8 20 -12 15 -11 15 7 0 11 -9 32 -15 48 -14z
m-239 -15 c-6 -6 -10 -3 -10 10 0 13 4 16 10 10 7 -7 7 -13 0 -20z m41 2 c-3
-3 -11 0 -18 7 -9 10 -8 11 6 5 10 -3 15 -9 12 -12z m122 11 c-4 -3 -1 -13 6
-22 11 -14 10 -14 -5 -2 -16 12 -16 31 -1 31 4 0 3 -3 0 -7z m237 -18 c1 -9 9
-21 17 -26 9 -5 10 -9 2 -9 -6 0 -15 6 -20 13 -9 15 -16 53 -7 45 3 -3 7 -14
8 -23z m-278 -21 c1 -9 0 -13 -4 -10 -3 4 -7 14 -8 22 -1 9 0 13 4 10 3 -4 7
-14 8 -22z m118 -13 c-2 -3 -12 3 -22 13 -16 17 -16 18 5 5 12 -7 20 -15 17
-18z m63 14 c0 -8 -5 -11 -10 -8 -6 4 -8 0 -4 -10 4 -11 2 -14 -9 -10 -13 5
-13 8 2 24 21 23 21 23 21 4z m-204 -15 c10 -12 9 -12 -3 -3 -8 6 -23 9 -33 8
-9 -2 -15 0 -12 5 7 12 33 6 48 -10z m284 5 c5 -4 2 -5 -6 0 -11 6 -13 4 -8
-8 9 -23 0 -21 -13 2 -7 15 -7 19 5 17 8 -1 18 -6 22 -11z m-176 -12 c13 -16
12 -17 -3 -4 -10 7 -18 15 -18 17 0 8 8 3 21 -13z m-25 -29 c1 -9 0 -13 -4
-10 -3 4 -7 14 -8 22 -1 9 0 13 4 10 3 -4 7 -14 8 -22z m103 -1 c2 -1 -5 -1
-16 0 -11 0 -20 7 -20 14 0 10 4 10 16 1 9 -7 18 -13 20 -15z m-215 5 c-3 -4
-9 -8 -15 -8 -5 0 -9 4 -9 8 0 5 7 9 15 9 8 0 12 -4 9 -9z m30 -4 c3 -8 2 -12
-4 -9 -6 3 -10 10 -10 16 0 14 7 11 14 -7z m306 -19 c0 -1 -6 -8 -14 -14 -11
-9 -16 -9 -22 0 -5 8 -3 9 6 4 10 -6 12 -4 7 8 -4 11 -2 14 9 10 7 -3 14 -6
14 -8z m-382 -20 c-3 -3 -9 2 -12 12 -6 14 -5 15 5 6 7 -7 10 -15 7 -18z m229
3 c-3 -8 -6 -5 -6 6 -1 11 2 17 5 13 3 -3 4 -12 1 -19z m-172 2 c3 -5 1 -10
-4 -10 -6 0 -11 5 -11 10 0 6 2 10 4 10 3 0 8 -4 11 -10z m84 7 c-2 -1 -13 -9
-24 -17 -19 -14 -19 -14 -6 3 7 9 18 17 24 17 6 0 8 -1 6 -3z m158 -19 c2 -17
0 -19 -7 -8 -5 8 -6 18 -4 22 8 12 10 10 11 -14z m-117 -29 c0 -5 -5 -9 -12
-9 -6 0 -8 3 -5 7 4 3 1 13 -6 22 -11 14 -10 14 6 2 9 -7 17 -17 17 -22z m80
27 c0 -2 -7 -7 -16 -10 -8 -3 -12 -2 -9 4 6 10 25 14 25 6z m17 -21 c0 -8 -5
-11 -10 -8 -7 4 -8 -1 -3 -13 4 -10 4 -15 0 -12 -3 4 -14 -1 -23 -10 -9 -10
-12 -12 -8 -5 5 6 5 18 1 25 -4 7 -4 10 1 6 5 -5 14 1 22 12 17 24 20 25 20 5z
m-137 -20 c14 -19 14 -19 -2 -6 -10 7 -18 18 -18 24 0 6 1 8 3 6 1 -2 9 -13
17 -24z m200 15 c0 -5 -5 -10 -11 -10 -5 0 -7 5 -4 10 3 6 8 10 11 10 2 0 4
-4 4 -10z m55 -8 c-3 -3 -11 0 -18 7 -9 10 -8 11 6 5 10 -3 15 -9 12 -12z
m-335 4 c0 -2 -8 -10 -17 -17 -16 -13 -17 -12 -4 4 13 16 21 21 21 13z m157
-21 c0 -8 -4 -12 -9 -9 -5 3 -6 10 -3 15 9 13 12 11 12 -6z m137 3 c-5 -8 -2
-9 11 -4 15 5 16 4 5 -9 -10 -12 -15 -13 -21 -3 -7 12 -3 28 7 28 3 0 2 -5 -2
-12z m-35 -31 c0 -9 -2 -9 -5 0 -3 7 -13 9 -22 6 -14 -4 -14 -3 -2 5 16 12 30
7 29 -11z m-223 -2 c-1 -8 -5 -17 -8 -21 -5 -4 -4 16 1 34 3 9 9 -1 7 -13z
m44 11 c0 -2 -8 -10 -17 -17 -16 -13 -17 -12 -4 4 13 16 21 21 21 13z m-115
-16 c-3 -5 -12 -10 -18 -10 -7 0 -6 4 3 10 19 12 23 12 15 0z m135 -4 c0 -2
-8 -10 -17 -17 -16 -13 -17 -12 -4 4 13 16 21 21 21 13z m65 -15 c-9 -8 -36
-10 -30 -2 2 4 11 8 20 8 8 0 13 -3 10 -6z m92 -5 c0 -8 -6 -12 -15 -8 -11 4
-13 1 -7 -8 6 -9 4 -11 -5 -5 -10 6 -9 11 5 22 23 16 22 16 22 -1z m83 2 c0
-4 -4 -8 -9 -8 -6 0 -12 4 -15 8 -3 5 1 9 9 9 8 0 15 -4 15 -9z m-220 -2 c0
-2 -8 -10 -17 -17 -16 -13 -17 -12 -4 4 13 16 21 21 21 13z m-40 -20 c0 -2 -6
-9 -14 -15 -11 -9 -16 -9 -22 0 -4 7 -3 9 4 5 6 -3 13 -2 17 4 6 10 15 14 15
6z m60 0 c0 -2 -8 -10 -17 -17 -16 -13 -17 -12 -4 4 13 16 21 21 21 13z m136
-16 c0 -12 -4 -16 -9 -11 -5 5 -6 14 -3 20 10 15 12 14 12 -9z m-262 1 c-7 -8
-54 -9 -59 -2 -2 4 12 7 30 7 19 0 32 -3 29 -5z m312 -18 c-6 -6 -36 9 -36 18
0 5 9 4 20 -3 10 -7 18 -14 16 -15z m-168 4 c8 -10 6 -13 -7 -13 -11 0 -17 6
-14 13 3 7 6 13 8 13 1 0 7 -6 13 -13z m-43 -15 c-3 -3 -11 0 -18 7 -9 10 -8
11 6 5 10 -3 15 -9 12 -12z m118 5 c-4 -6 0 -8 10 -4 10 4 14 2 11 -7 -3 -7
-11 -13 -19 -13 -8 0 -13 3 -10 5 3 3 0 10 -5 17 -7 8 -5 12 5 12 8 0 11 -5 8
-10z m-216 -12 c0 -8 -4 -12 -9 -9 -5 3 -6 10 -3 15 9 13 12 11 12 -6z m59 3
c5 4 6 3 2 -2 -4 -5 -2 -16 4 -25 10 -12 7 -12 -8 2 -11 9 -23 15 -26 12 -2
-3 -5 2 -5 10 0 10 4 12 12 5 7 -5 16 -6 21 -2z m264 -2 c0 -3 -4 -8 -10 -11
-5 -3 -10 -1 -10 4 0 6 5 11 10 11 6 0 10 -2 10 -4z m-183 -33 c0 -9 -4 -10
-14 -2 -7 6 -13 12 -13 14 0 1 6 2 13 2 8 0 14 -6 14 -14z m136 -5 c-2 -5 -13
-8 -23 -8 -10 0 -21 3 -23 8 -3 4 8 7 23 7 15 0 26 -3 23 -7z m32 -9 c-5 -16
-4 -19 5 -14 9 6 11 4 5 -4 -10 -18 -27 2 -19 22 9 25 17 21 9 -4z m-109 -1
c3 -4 -2 -5 -13 -4 -10 2 -25 -2 -33 -8 -13 -9 -13 -9 -2 6 12 16 35 18 48 6z
m-136 -2 c0 -2 -8 -10 -17 -17 -16 -13 -17 -12 -4 4 13 16 21 21 21 13z m16
-36 c0 -12 -4 -16 -9 -11 -5 5 -6 14 -3 20 10 15 12 14 12 -9z m111 14 c-3 -3
-12 -4 -19 -1 -8 3 -5 6 6 6 11 1 17 -2 13 -5z m-47 -8 c0 -2 -7 -7 -16 -10
-8 -3 -12 -2 -9 4 6 10 25 14 25 6z m-156 -24 c2 -4 -4 -8 -14 -8 -10 0 -16 4
-14 8 3 4 9 8 14 8 5 0 11 -4 14 -8z m283 2 c-3 -3 -12 -4 -19 -1 -8 3 -5 6 6
6 11 1 17 -2 13 -5z m-163 -25 c-10 -12 -18 -24 -17 -28 1 -3 0 -8 -2 -9 -2
-2 -3 3 -1 11 2 16 25 47 34 47 3 0 -3 -9 -14 -21z m-369 2 c3 -5 2 -12 -3
-15 -5 -3 -9 1 -9 9 0 17 3 19 12 6z m85 -1 c0 -5 -5 -10 -11 -10 -5 0 -7 5
-4 10 3 6 8 10 11 10 2 0 4 -4 4 -10z m239 7 c-2 -2 -11 -8 -20 -15 -12 -9
-16 -9 -16 1 0 7 9 14 20 14 11 1 18 1 16 0z m231 -7 c8 -5 11 -10 5 -10 -5 0
-17 5 -25 10 -8 5 -10 10 -5 10 6 0 17 -5 25 -10z m-152 -13 c8 -10 6 -13 -7
-13 -11 0 -17 6 -14 13 3 7 6 13 8 13 1 0 7 -6 13 -13z m-167 -14 c13 -16 12
-17 -3 -4 -10 7 -18 15 -18 17 0 8 8 3 21 -13z m90 4 c-6 -8 -9 -17 -6 -20 3
-4 2 -5 -2 -2 -3 3 -11 0 -18 -5 -8 -7 -12 -5 -12 5 0 8 4 12 8 10 3 -3 12 2
19 10 7 8 15 15 17 15 3 0 0 -6 -6 -13z m113 1 c-5 -7 -2 -9 8 -6 8 4 15 1 15
-7 0 -8 -7 -11 -16 -7 -14 5 -14 4 -1 -14 14 -17 14 -18 -2 -6 -9 7 -15 21
-13 30 5 23 4 22 11 22 3 0 2 -5 -2 -12z m98 -5 c1 -4 8 -14 17 -21 14 -11 14
-11 -3 -5 -14 5 -17 3 -11 -7 5 -9 4 -11 -4 -6 -6 4 -8 12 -5 18 5 7 1 9 -9 5
-9 -3 -19 -2 -22 4 -4 5 -3 9 2 8 22 -4 34 2 27 14 -4 6 -4 9 0 5 4 -3 8 -10
8 -15z m-448 -11 c2 -4 -4 -8 -14 -8 -10 0 -16 4 -14 8 3 4 9 8 14 8 5 0 11
-4 14 -8z m-64 -16 c0 -3 -4 -8 -10 -11 -5 -3 -10 -1 -10 4 0 6 5 11 10 11 6
0 10 -2 10 -4z m345 -5 c-9 -8 -36 -10 -30 -2 2 4 11 8 20 8 8 0 13 -3 10 -6z
m-170 -10 c3 -5 2 -12 -3 -15 -5 -3 -9 1 -9 9 0 17 3 19 12 6z m299 -5 c-3 -9
-12 -12 -22 -9 -15 6 -9 11 25 22 1 1 0 -5 -3 -13z m-339 -14 c-3 -3 -11 0
-18 7 -9 10 -8 11 6 5 10 -3 15 -9 12 -12z m373 -7 c-3 -3 -9 2 -12 12 -6 14
-5 15 5 6 7 -7 10 -15 7 -18z m35 7 c-10 -10 -20 -17 -22 -16 -6 5 20 34 30
34 5 0 1 -8 -8 -18z m-548 -12 c3 -5 1 -10 -4 -10 -6 0 -11 5 -11 10 0 6 2 10
4 10 3 0 8 -4 11 -10z m45 0 c0 -5 -5 -10 -11 -10 -5 0 -7 5 -4 10 3 6 8 10
11 10 2 0 4 -4 4 -10z m313 -8 c4 9 6 9 6 1 2 -22 -16 -23 -35 0 l-19 22 21
-18 c17 -14 23 -15 27 -5z m74 12 c-3 -3 -12 -4 -19 -1 -8 3 -5 6 6 6 11 1 17
-2 13 -5z m-153 -34 c-6 -6 -10 -3 -10 10 0 13 4 16 10 10 7 -7 7 -13 0 -20z
m-37 3 c0 -9 -4 -10 -14 -2 -7 6 -13 12 -13 14 0 1 6 2 13 2 8 0 14 -6 14 -14z
m279 5 c3 -4 -1 -5 -10 -4 -8 1 -18 5 -22 8 -3 4 1 5 10 4 8 -1 18 -5 22 -8z
m-600 -20 c3 -4 -1 -5 -10 -4 -8 1 -18 5 -22 8 -3 4 1 5 10 4 8 -1 18 -5 22
-8z m44 2 c0 -5 -2 -10 -4 -10 -3 0 -8 5 -11 10 -3 6 -1 10 4 10 6 0 11 -4 11
-10z m338 -10 c-7 -10 -14 -17 -17 -15 -4 4 18 35 25 35 2 0 -1 -9 -8 -20z
m233 -7 c-12 -20 -14 -14 -5 12 4 9 9 14 11 11 3 -2 0 -13 -6 -23z m-172 4 c8
-10 7 -14 -2 -14 -8 0 -14 6 -14 14 0 7 1 13 2 13 2 0 8 -6 14 -13z m69 -1
c-10 -7 -14 -17 -10 -22 4 -4 -2 -2 -13 6 -30 21 -32 24 -14 18 9 -4 22 -2 30
3 21 13 26 10 7 -5z m-893 -14 c-3 -3 -11 0 -18 7 -9 10 -8 11 6 5 10 -3 15
-9 12 -12z m685 8 c0 -5 -5 -10 -11 -10 -5 0 -7 5 -4 10 3 6 8 10 11 10 2 0 4
-4 4 -10z m-180 -20 c0 -5 -2 -10 -4 -10 -3 0 -8 5 -11 10 -3 6 -1 10 4 10 6
0 11 -4 11 -10z m341 -3 c-6 -8 -8 -17 -4 -20 3 -4 2 -7 -4 -7 -6 0 -16 7 -23
15 -11 13 -10 14 3 10 8 -4 18 -2 22 4 3 6 9 11 12 11 3 0 0 -6 -6 -13z m179
-17 c0 -10 -3 -21 -7 -23 -5 -3 -8 8 -8 23 0 15 3 26 8 23 4 -2 7 -13 7 -23z
m-986 -10 c-6 -6 -10 -3 -10 10 0 13 4 16 10 10 7 -7 7 -13 0 -20z m926 20 c0
-5 -7 -7 -15 -4 -8 4 -15 8 -15 10 0 2 7 4 15 4 8 0 15 -4 15 -10z m-40 -10
c0 -5 -4 -10 -10 -10 -5 0 -10 5 -10 10 0 6 5 10 10 10 6 0 10 -4 10 -10z
m-163 -15 c0 -8 -10 -23 -21 -32 -21 -18 -21 -18 -2 5 11 12 16 22 12 22 -4 0
-4 5 -1 10 9 14 12 13 12 -5z m-27 1 c0 -2 -8 -10 -17 -17 -16 -13 -17 -12 -4
4 13 16 21 21 21 13z m74 -4 c2 -4 -4 -8 -14 -8 -10 0 -16 4 -14 8 3 4 9 8 14
8 5 0 11 -4 14 -8z m79 -9 c-5 -12 -3 -14 7 -8 9 6 11 4 5 -4 -5 -9 -11 -9
-17 -3 -6 6 -7 15 -4 21 11 17 16 13 9 -6z m67 -3 c-6 -11 -13 -20 -16 -20 -2
0 0 9 6 20 6 11 13 20 16 20 2 0 0 -9 -6 -20z m-326 -8 c3 -5 -1 -9 -9 -9 -8
0 -12 4 -9 9 3 4 7 8 9 8 2 0 6 -4 9 -8z m219 -15 c3 -7 -3 -13 -14 -13 -13 0
-15 3 -7 13 6 7 12 13 13 13 2 0 5 -6 8 -13z m-468 -6 c-9 -8 -36 -10 -30 -2
2 4 11 8 20 8 8 0 13 -3 10 -6z m625 -1 c0 -5 -2 -10 -4 -10 -3 0 -8 5 -11 10
-3 6 -1 10 4 10 6 0 11 -4 11 -10z m-204 -20 c0 -12 -4 -16 -9 -11 -5 5 -6 14
-3 20 10 15 12 14 12 -9z m121 -12 c2 -18 0 -20 -7 -8 -12 18 -13 30 -2 30 4
0 9 -10 9 -22z m63 11 c0 -5 -5 -7 -12 -3 -8 5 -9 1 -4 -12 5 -14 4 -16 -5 -7
-6 6 -8 16 -5 22 9 14 26 14 26 0z m-604 -21 c3 -4 -1 -5 -10 -4 -8 1 -18 5
-22 8 -3 4 1 5 10 4 8 -1 18 -5 22 -8z m301 -10 c1 -10 -3 -18 -9 -18 -6 0 -8
3 -5 7 4 3 2 11 -3 18 -7 8 -6 12 3 12 7 0 14 -9 14 -19z m163 -3 c-4 -11 -6
-28 -4 -38 1 -11 0 -16 -3 -13 -4 3 -13 0 -22 -7 -14 -11 -15 -10 -1 7 18 22
22 47 10 61 -6 7 -2 11 9 11 15 0 17 -5 11 -21z m157 -6 c0 -21 -3 -26 -9 -16
-4 9 -5 22 -2 31 9 23 11 20 11 -15z m-237 -21 c0 -4 -5 -8 -12 -8 -6 0 -8 3
-5 7 4 3 -1 16 -10 27 -18 21 -18 21 5 2 12 -11 22 -23 22 -28z m137 28 c0 -8
-6 -12 -15 -9 -11 5 -11 7 0 14 7 5 13 9 14 9 0 0 1 -6 1 -14z m65 -24 c-7 -2
-10 -8 -7 -12 3 -5 0 -12 -6 -16 -8 -4 -9 -3 -5 4 4 7 1 12 -6 13 -10 0 -10 2
0 6 6 2 10 9 7 14 -4 5 2 6 11 2 11 -4 13 -8 6 -11z m-238 0 c3 -5 -1 -9 -9
-9 -8 0 -15 4 -15 9 0 10 17 10 24 0z m-327 -15 c0 -8 -6 -14 -14 -14 -9 0
-10 4 -2 14 6 7 12 13 14 13 1 0 2 -6 2 -13z m119 -13 c1 -9 0 -13 -4 -10 -3
4 -7 14 -8 22 -1 9 0 13 4 10 3 -4 7 -14 8 -22z m44 22 c0 -2 -8 -10 -17 -17
-16 -13 -17 -12 -4 4 13 16 21 21 21 13z m451 -19 c-10 -9 -11 -8 -5 6 3 10 9
15 12 12 3 -3 0 -11 -7 -18z m-811 9 c0 -3 -4 -8 -10 -11 -5 -3 -10 -1 -10 4
0 6 5 11 10 11 6 0 10 -2 10 -4z m290 -2 c0 -8 -19 -13 -24 -6 -3 5 1 9 9 9 8
0 15 -2 15 -3z m395 -4 c-3 -5 -12 -10 -18 -10 -7 0 -6 4 3 10 19 12 23 12 15
0z m40 0 c3 -6 -1 -7 -9 -4 -18 7 -21 14 -7 14 6 0 13 -4 16 -10z m63 -15 c-3
-3 -9 2 -12 12 -6 14 -5 15 5 6 7 -7 10 -15 7 -18z m-651 0 c0 -8 -4 -12 -9
-9 -5 3 -6 10 -3 15 9 13 12 11 12 -6z m260 0 c0 -8 -4 -12 -9 -9 -5 3 -6 10
-3 15 9 13 12 11 12 -6z m316 -21 c-7 -19 -10 -18 -16 5 -3 13 -1 18 9 14 7
-2 10 -11 7 -19z m-116 -14 c2 -11 -1 -20 -5 -20 -4 0 -8 11 -8 25 0 28 8 24
13 -5z m50 24 c-3 -3 -12 -4 -19 -1 -8 3 -5 6 6 6 11 1 17 -2 13 -5z m-547
-10 c0 -8 -19 -13 -24 -6 -3 5 1 9 9 9 8 0 15 -2 15 -3z m100 -3 c0 -6 -4 -12
-8 -15 -5 -3 -9 1 -9 9 0 8 4 15 9 15 4 0 8 -4 8 -9z m44 1 c3 -5 -1 -9 -9 -9
-8 0 -12 4 -9 9 7 10 11 10 18 0z m87 -15 c-10 -9 -11 -8 -5 6 3 10 9 15 12
12 3 -3 0 -11 -7 -18z m149 13 c0 -5 -2 -10 -4 -10 -3 0 -8 5 -11 10 -3 6 -1
10 4 10 6 0 11 -4 11 -10z m80 -15 c14 -19 14 -19 -2 -6 -10 7 -18 18 -18 24
0 6 1 8 3 6 1 -2 9 -13 17 -24z m191 -2 c-12 -20 -14 -14 -5 12 4 9 9 14 11
11 3 -2 0 -13 -6 -23z m59 17 c0 -5 -5 -10 -11 -10 -5 0 -7 5 -4 10 3 6 8 10
11 10 2 0 4 -4 4 -10z m-130 -16 c0 -8 -19 -13 -24 -6 -3 5 1 9 9 9 8 0 15 -2
15 -3z"/>
</g>
</svg>
