<svg width="147" height="147" viewBox="0 0 147 147" fill="none" xmlns="http://www.w3.org/2000/svg">
<mask id="mask0_29_23" style="mask-type:alpha" maskUnits="userSpaceOnUse" x="0" y="0" width="147" height="147">
<rect x="11.7396" y="11.7396" width="123.521" height="123.521" stroke="black" stroke-width="23.4792"/>
<mask id="mask1_29_23" style="mask-type:alpha" maskUnits="userSpaceOnUse" x="23" y="23" width="102" height="101">
<rect x="23.4792" y="23.4792" width="100.552" height="99.5312" fill="black"/>
</mask>
<g mask="url(#mask1_29_23)">
<path d="M165.122 37.9082H152.039V116.406H135.869V98.6192C130.577 103.029 122.688 105.234 112.202 105.234C105.048 105.234 98.8248 104.205 93.5328 102.147C88.3388 99.9912 84.3698 97.0512 81.6258 93.3272C78.8818 89.5052 77.5098 85.1442 77.5098 80.2442C77.5098 75.7362 78.5878 71.8162 80.7438 68.4842C82.8998 65.1522 85.7418 62.8002 89.2698 61.4282C81.4298 57.9982 77.5098 51.8732 77.5098 43.0532C77.5098 36.5852 79.4208 31.4892 83.2428 27.7652C87.1628 23.9432 92.5528 22.0322 99.4128 22.0322C105.783 22.0322 110.732 23.6492 114.26 26.8832C117.886 30.0192 119.699 34.1352 119.699 39.2312C119.699 40.5052 119.503 42.1222 119.111 44.0822H103.823V40.1132C103.823 38.7412 103.48 37.6142 102.794 36.7322C102.108 35.8502 101.079 35.4093 99.7068 35.4093C97.7468 35.4093 96.3748 36.2912 95.5908 38.0552C94.9048 39.7212 94.5618 41.7302 94.5618 44.0822C94.5618 47.7082 95.3458 50.5012 96.9138 52.4612C98.5798 54.4212 100.687 55.4012 103.235 55.4012H112.202V68.7782H103.382C100.736 68.7782 98.5798 69.6112 96.9138 71.2772C95.3458 72.8452 94.5618 75.1972 94.5618 78.3332C94.5618 82.7432 96.2278 86.1242 99.5598 88.4762C102.99 90.8282 107.89 92.0042 114.26 92.0042C121.512 92.0042 126.902 90.5342 130.43 87.5942C134.056 84.6542 135.869 80.4892 135.869 75.0992V37.9082H124.403V23.7962H165.122V37.9082Z" fill="black"/>
</g>
</mask>
<g mask="url(#mask0_29_23)">
<rect width="147" height="147" fill="url(#paint0_linear_29_23)"/>
</g>
<defs>
<linearGradient id="paint0_linear_29_23" x1="-1.32776e-06" y1="24.1776" x2="184.779" y2="35.9218" gradientUnits="userSpaceOnUse">
<stop stop-color="#35E6DA"/>
<stop offset="1" stop-color="#0591F5" stop-opacity="0.42"/>
</linearGradient>
</defs>
</svg>
